<svg xmlns="http://www.w3.org/2000/svg" xmlns:xlink="http://www.w3.org/1999/xlink" version="1.1" x="0px" y="0px" viewBox="0 0 100 125" style="enable-background:new 0 0 100 100;" xml:space="preserve"><path d="M31.5,96.7c-1.3-0.7-1-1.6-1-2.4c0-4.7,0.1-9.3,0.5-14c0.3-2.7-0.3-5.4-0.3-8.2c0.1-4.4,0.3-8.8,0.4-13.3  c0.2-6.7,0.2-13.4-0.5-20c-0.4-3.6,0.1-7.3-0.1-10.9c-0.1-2.9-0.5-5.8-0.6-8.8c-0.2-3.7,0.1-7.3,0.5-10.9c0.2-1.4,2-3.3,3.4-3.4  c0.9-0.1,1.8,0.3,1.9,1.2c0.2,1.4,0,2.9,0,4.2c-0.7,0.2-0.8-0.1-1-0.4c-0.6-0.7-0.4-2.1-1.5-2.1c-1.2,0.1-1.2,1.6-1.3,2.4  c-0.4,2.4-0.2,4.8,0.3,7.2c0.2,1,0.8,1.2,1.5,1c3.8-0.9,7.7-0.4,11.5-0.8c3.2-0.3,6.5-0.1,9.7-0.2c2.5-0.1,5.1-0.1,7.6-0.3  c2.4-0.1,2.4-0.1,2.5-2.7c0.2-3.1,0.3-6.3,1.3-9.3c0.5-1.4,1.3-2.2,2.7-2.6c1.3-0.4,2.4-0.2,3,1.2c0.6,1.3,1.2,2.6,1.5,4  c0.1,0.7,0.5,1.9-0.7,2c-0.9,0.1-2.1-0.1-2.2-1.5c-0.1-0.9-0.2-1.8-0.9-2.5c-1,0.7-1.3,1.7-1.4,2.9c-0.7,8.2-0.9,16.4-0.4,24.6  c0.2,3.7-0.1,7.4-0.2,11.1c-0.2,6.2-0.3,12.4,0.1,18.6c0.4,5.6,0.8,11.1,0.3,16.7c-0.4,5.4-0.4,10.8-0.9,16.2  c-1,0.3-1.1-0.7-1.7-0.8c-1.1-0.1-1.2-0.6-1.1-1.6c0.2-1.8,0.1-3.6,0.1-5.5c0-1.3-0.2-1.9-1.9-1.9c-4.2,0.1-8.5,0.5-12.7-0.1  c-1.3-0.2-2.6,0.2-3.9,0.3c-3.2,0.3-6.5,0-9.7,0c-2.3,0-2.7,0.1-2.6,2.3C33.8,91.5,32.3,93.8,31.5,96.7z M65.9,35.1  c-0.1-4.7-0.6-8.8-0.6-12.9c0-2.4-1-3.4-3.4-2.9c-3.1,0.6-6.2-0.2-9.3,0.1c-1.7,0.2-3.5,0.1-5.1,0.5c-1.2,0.3-2.4,0.5-3.5,0.4  c-3.2-0.4-6.3,0.4-9.5,0.6c-1.7,0.1-2.2,0.6-2.3,2.3c-0.1,3.7,0.7,7.2,0.6,10.9c0,1.2,0.6,1.1,1.6,1.2c6,0.1,11.9-0.6,17.9-0.7  c2.8,0,5.7,0,8.5-0.2C62.4,34.2,64,34,65.9,35.1z M33.2,37.5c-0.2,1.5-0.8,2.8-0.6,3.8c0.7,3,0,6-0.1,9c0,1.4,0.6,1.8,1.9,1.7  c7.3-0.5,14.5-1.1,21.8-1.3c2.7-0.1,5.4-0.2,8.2-0.5c0.9-0.1,1.5-0.3,1.4-1.5c-0.3-4.1,0.2-8.2-0.3-12.4  C54.8,36,44.2,37.9,33.2,37.5z M33.2,67.5c0.5,0,0.9,0,1.2,0c6.8-0.2,13.6-0.8,20.4-0.6c3,0.1,6-0.8,9-0.2c1.2,0.2,1.5-0.4,1.7-1.5  c0.6-2.8,0.3-5.7,0.5-8.5c0.2-4.1-0.2-4.3-4.4-4.5c-5.2-0.2-10.3,1-15.4,1.1c-3.7,0.1-7.5,0.4-11.2,0.6c-0.9,0-2-0.1-1.9,1.3  C33.1,59.2,32,63.3,33.2,67.5z M59.4,82.9c1.5-0.1,2.7-0.1,3.9-0.2c0.7,0,1.2-0.2,1.3-1c0.3-3.6,0.5-7.3,0.8-10.9  c0.1-1.4-0.7-2-2-2.2c-0.5-0.1-1-0.1-1.5-0.1c-9.2,0-18.4,0.5-27.6,1c-1.3,0.1-1.4,0.7-1.4,1.7c0,3.2,0.1,6.4,0.8,9.6  c0.5,2.3,0.3,2.3,2.6,2.3c5.8,0,11.6-0.7,17.3-0.5C55.7,82.8,57.7,83.3,59.4,82.9z" fill='#f0f0f0' /></svg>